<mxfile host="app.diagrams.net" modified="2021-06-08T09:02:55.451Z" agent="5.0 (Windows NT 10.0; WOW64) AppleWebKit/537.36 (KHTML, like Gecko) Chrome/91.0.4472.77 Safari/537.36" etag="cQhu6MKpUmxL7TiScJno" version="14.7.6" type="github">
  <diagram id="gzLZK9TfaMANAJwAGOlZ" name="Page-1">
    <mxGraphModel dx="1422" dy="706" grid="0" gridSize="10" guides="1" tooltips="1" connect="1" arrows="1" fold="1" page="0" pageScale="1" pageWidth="827" pageHeight="1169" math="0" shadow="0">
      <root>
        <mxCell id="0" />
        <mxCell id="1" parent="0" />
        <mxCell id="OTKfWTL9uHVrvnjgWP8C-24" style="edgeStyle=orthogonalEdgeStyle;rounded=0;orthogonalLoop=1;jettySize=auto;html=1;exitX=0.25;exitY=1;exitDx=0;exitDy=0;" edge="1" parent="1" source="OTKfWTL9uHVrvnjgWP8C-8" target="OTKfWTL9uHVrvnjgWP8C-15">
          <mxGeometry relative="1" as="geometry" />
        </mxCell>
        <mxCell id="OTKfWTL9uHVrvnjgWP8C-25" style="edgeStyle=orthogonalEdgeStyle;rounded=0;orthogonalLoop=1;jettySize=auto;html=1;exitX=0.75;exitY=1;exitDx=0;exitDy=0;entryX=0.5;entryY=0;entryDx=0;entryDy=0;" edge="1" parent="1" source="OTKfWTL9uHVrvnjgWP8C-8" target="OTKfWTL9uHVrvnjgWP8C-14">
          <mxGeometry relative="1" as="geometry" />
        </mxCell>
        <mxCell id="OTKfWTL9uHVrvnjgWP8C-8" value="柜台前置B" style="rounded=0;whiteSpace=wrap;html=1;fillColor=#dae8fc;strokeColor=#6c8ebf;" vertex="1" parent="1">
          <mxGeometry x="409" y="173" width="120" height="60" as="geometry" />
        </mxCell>
        <mxCell id="OTKfWTL9uHVrvnjgWP8C-13" style="edgeStyle=orthogonalEdgeStyle;rounded=0;orthogonalLoop=1;jettySize=auto;html=1;exitX=0.5;exitY=1;exitDx=0;exitDy=0;entryX=0.5;entryY=0;entryDx=0;entryDy=0;" edge="1" parent="1" source="OTKfWTL9uHVrvnjgWP8C-14" target="OTKfWTL9uHVrvnjgWP8C-19">
          <mxGeometry relative="1" as="geometry" />
        </mxCell>
        <mxCell id="OTKfWTL9uHVrvnjgWP8C-14" value="缓存集群B" style="rounded=0;whiteSpace=wrap;html=1;fillColor=#dae8fc;strokeColor=#6c8ebf;" vertex="1" parent="1">
          <mxGeometry x="508" y="295" width="120" height="60" as="geometry" />
        </mxCell>
        <mxCell id="OTKfWTL9uHVrvnjgWP8C-15" value="柜台" style="rounded=0;whiteSpace=wrap;html=1;fillColor=#dae8fc;strokeColor=#6c8ebf;" vertex="1" parent="1">
          <mxGeometry x="315" y="295" width="120" height="60" as="geometry" />
        </mxCell>
        <mxCell id="OTKfWTL9uHVrvnjgWP8C-19" value="数据库B" style="rounded=0;whiteSpace=wrap;html=1;fillColor=#dae8fc;strokeColor=#6c8ebf;" vertex="1" parent="1">
          <mxGeometry x="508" y="417" width="120" height="60" as="geometry" />
        </mxCell>
        <mxCell id="OTKfWTL9uHVrvnjgWP8C-23" style="edgeStyle=orthogonalEdgeStyle;rounded=0;orthogonalLoop=1;jettySize=auto;html=1;exitX=0.5;exitY=1;exitDx=0;exitDy=0;entryX=0.5;entryY=0;entryDx=0;entryDy=0;" edge="1" parent="1" source="OTKfWTL9uHVrvnjgWP8C-22" target="OTKfWTL9uHVrvnjgWP8C-8">
          <mxGeometry relative="1" as="geometry" />
        </mxCell>
        <mxCell id="OTKfWTL9uHVrvnjgWP8C-22" value="前端/客户端" style="rounded=0;whiteSpace=wrap;html=1;fillColor=#d5e8d4;strokeColor=#82b366;" vertex="1" parent="1">
          <mxGeometry x="409" y="64" width="120" height="54" as="geometry" />
        </mxCell>
      </root>
    </mxGraphModel>
  </diagram>
</mxfile>
